<svg data-name="Layer 1" viewBox="0 0 64 64" xmlns="http://www.w3.org/2000/svg"><path d="M55.57 34.55a2 2 0 0 0 0-.22 5.25 5.25 0 0 0-5.26-5.26 5 5 0 0 0-.53 0h-.68a5 5 0 0 0-.69.21l-.15.07-.28.13a10.59 10.59 0 0 0-10.35-8.37h-1.61c-.13 0-.26 0-.39.06h-.07l-.35.08-.39.1a11 11 0 0 0-1.31.46l-.47.21a9 9 0 0 0-.9.49l-.43.28a3 3 0 0 0-.36.25c-.12.08-.23.17-.33.25l-.35.3-.24.21-.3.28-.34.37c-.12.13-.23.25-.34.39a4 4 0 0 0-.31.4 3.5 3.5 0 0 0-.28.39 10 10 0 0 0-.78 1.35c-.07.16-.15.31-.21.47a5 5 0 0 0-.23.59c0 .12-.09.26-.13.38s-.1.33-.14.49-.09.35-.13.53-.08.41-.11.61h-1.37a4 4 0 0 0-.54.07l-.54.11-.34.08q-.29.07-.57.18a5 5 0 0 0-.52.2h-.11c-.22.09-.44.2-.65.31s-.42.23-.62.36a6 6 0 0 0-.5.34l-.09.06a8 8 0 0 0-1 .89l-.25.27c-.12.13-.23.25-.33.38a6 6 0 0 0-.44.58A9 9 0 0 0 18 37a9.17 9.17 0 0 0 8.8 11.68h28.06a7.06 7.06 0 0 0 .71-14.09Z" fill="#83d9f2"/><path d="M19.2 34.32a6 6 0 0 1 .44-.58c.1-.13.21-.25.33-.38l.25-.27a8 8 0 0 1 1-.89A9 9 0 0 1 24 18.05a8.3 8.3 0 0 0-6.14-2.7h-.7a8 8 0 0 0-1.39.24l-.39.11-.39.13-.38.15a8 8 0 0 0-1.42.78 2 2 0 0 0-.33.23l-.32.25a4 4 0 0 0-.31.27l-.28.27-.23.23c-.2.22-.38.44-.56.68l-.23.33a7 7 0 0 0-.6 1c-.06.12-.12.24-.17.37a3 3 0 0 0-.15.37 8.7 8.7 0 0 0-.42 1.61s0 0 0 .07h-.3A7.22 7.22 0 1 0 9.31 37H18a9 9 0 0 1 1.2-2.68" fill="#6e9eff"/><path d="M21.37 32.09a6 6 0 0 1 .5-.34c.2-.13.41-.25.62-.36s.43-.22.65-.31h.11a5 5 0 0 1 .52-.2q.29-.11.57-.18l.34-.08.54-.11a4 4 0 0 1 .54-.07h1.37c0-.2.07-.41.11-.61s.09-.36.13-.53.09-.33.14-.49.08-.26.13-.38a5 5 0 0 1 .23-.59c.06-.16.14-.31.21-.47a10 10 0 0 1 .78-1.35 3.5 3.5 0 0 1 .28-.39 4 4 0 0 1 .31-.4c.11-.14.22-.26.34-.39l.34-.37.3-.28.24-.21.35-.3c.1-.08.21-.17.33-.25a3 3 0 0 1 .36-.25l.43-.28a9 9 0 0 1 .9-.49l.47-.21a11 11 0 0 1 1.31-.46l.39-.1.35-.08h.07a9 9 0 1 0-14.35 10.7Z" fill="#fedb41"/><path d="M26.75 49.65h28.11a1 1 0 0 0 0-2H26.75a8.16 8.16 0 0 1-8.15-8.15 8.3 8.3 0 0 1 .31-2.26A8 8 0 0 1 20 34.86a5 5 0 0 1 .39-.51l.21-.25.11-.11.22-.24a7 7 0 0 1 .89-.78l.1-.07a5 5 0 0 1 .44-.3c.17-.11.36-.22.54-.31l.6-.29.18-.06a4 4 0 0 1 .44-.17l.48-.15.31-.07.49-.1a4 4 0 0 1 .45-.06h.2v1.37a1 1 0 0 0 1 .92h.08a1 1 0 0 0 .91-1.08v-.71a11 11 0 0 1 .09-1.39c0-.18.06-.36.09-.51l.12-.5c0-.14.08-.29.12-.42v-.12c0-.06 0-.13.1-.29a5 5 0 0 1 .21-.53c0-.08.06-.15.1-.22l.13-.21a9 9 0 0 1 .73-1.25 3 3 0 0 1 .27-.35 4 4 0 0 1 .28-.35c.09-.12.19-.22.29-.33l.61-.62.21-.18.33-.29.31-.23a3 3 0 0 1 .27-.18l.17-.11.26-.17a7 7 0 0 1 .78-.42l.44-.2a10 10 0 0 1 1.21-.42l.26-.07.39-.08h1.87a9.63 9.63 0 0 1 9.19 6.89 6.19 6.19 0 0 0-2.75 5.17 6.3 6.3 0 0 0 .88 3.2 1 1 0 1 0 1.72-1 4.26 4.26 0 0 1-.6-2.19 4.21 4.21 0 0 1 2.36-3.79l.16-.08.13-.06a4 4 0 0 1 .59-.18h.92a4.28 4.28 0 0 1 4.26 4.34 1 1 0 0 0 .89 1.13 6.06 6.06 0 0 1 3.27 10.69 1 1 0 0 0 1.3 1.21 8.07 8.07 0 0 0-3.47-14.08 6.27 6.27 0 0 0-6.23-5.62 6 6 0 0 0-.61 0l-.46.06h-.34l-.25.06a11.68 11.68 0 0 0-12.13-8h-.43a10 10 0 0 0-2.5-2.49 1 1 0 0 0-1.13 1.65 8 8 0 0 1 1.55 1.5h-.07q-.405.135-.78.3l-.51.23a10 10 0 0 0-1 .53l-.31.2-.12.08a3.4 3.4 0 0 0-.39.27l-.36.27-.08.07-.29.25a3 3 0 0 0-.3.26l-.7.71c-.14.15-.27.29-.34.39a4 4 0 0 0-.34.44 4 4 0 0 0-.34.47 11 11 0 0 0-.87 1.51l-.1.16c-.06.12-.12.25-.14.31a5 5 0 0 0-.24.62c0 .11-.09.23-.12.35v.11c-.05.18-.11.37-.16.56l-.05.21v.17h-.7a5 5 0 0 0-.65.08l-.56.11-.41.1c-.22.06-.44.13-.63.2s-.37.13-.55.21l-.14.06-.7.33-.54.31-.05-.08a8 8 0 0 1-.56-.91l-.06-.1a8 8 0 0 1-.42-1l-.07-.2a8 8 0 0 1-.25-1v-.19a8 8 0 0 1-.1-1.1 8 8 0 0 1 .31-2.24 7.9 7.9 0 0 1 3.2-4.39l.16-.09a8 8 0 0 1 .83-.48 8 8 0 0 1 5.18-.63 1 1 0 1 0 .42-2 10 10 0 0 0-5.82.5 9.34 9.34 0 0 0-6.36-2.51h-.78a9 9 0 0 0-1.53.26l-.52.15-.39.13-.42.17a8.7 8.7 0 0 0-1.52.83 2.5 2.5 0 0 0-.42.29l-.39.31a4 4 0 0 0-.32.28l-.31.3-.26.26c-.22.24-.42.49-.63.76l-.24.35a7.7 7.7 0 0 0-.67 1.17c-.07.14-.13.27-.19.42a4 4 0 0 0-.17.43 10 10 0 0 0-.31 1 8.23 8.23 0 0 0-5.67 2.8 1 1 0 0 0 1.51 1.32 6.23 6.23 0 0 1 3.92-2.08v.84a1 1 0 0 0 1 1 1 1 0 0 0 1-1v-.58a8 8 0 0 1 .07-1.07 8 8 0 0 1 .32-1.49 2 2 0 0 1 .09-.24v-.09c0-.1.08-.19.15-.31a6 6 0 0 1 .5-.88l.22-.32c.16-.21.32-.41.47-.57l.23-.23.28-.27.24-.21.35-.28a2 2 0 0 1 .24-.16 7 7 0 0 1 1.23-.66l.38-.15.3-.1.35-.1a7 7 0 0 1 1.22-.21h.61a7.35 7.35 0 0 1 4.46 1.52 10 10 0 0 0-1 .79c-.11.1-.21.21-.31.31s-.41.41-.6.62-.21.26-.31.4-.32.42-.47.64-.19.3-.27.45-.25.45-.37.69-.15.32-.22.48-.19.5-.28.76-.11.32-.15.48-.13.58-.18.87c0 .14-.06.28-.08.43a10 10 0 0 0-.08 1.33v1.13c0 .09 0 .39.08.58s0 .21.06.31.08.35.12.53l.09.32c.05.17.11.34.17.51l.11.3q.105.27.24.54l.11.24c.12.25.26.49.4.73q.21.34.44.66l-.33.32-.32.34c-.14.15-.27.29-.36.42a7 7 0 0 0-.5.66 10 10 0 0 0-.58 1l-.12.23a10 10 0 0 0-.45 1H9.31a6.22 6.22 0 0 1-6.06-7.65 1 1 0 1 0-1.95-.46A8.22 8.22 0 0 0 9.31 38h7.41a10 10 0 0 0-.12 1.53 10.16 10.16 0 0 0 10.15 10.12" fill="#002849"/><path d="M27.55 35.32a1 1 0 0 0-.5 1.32q.2.44.43.86a1 1 0 1 0 1.75-1c-.13-.23-.25-.47-.36-.71a1 1 0 0 0-1.32-.47" fill="#002849"/></svg>