<svg data-name="Layer 1" viewBox="0 0 64 64" xmlns="http://www.w3.org/2000/svg"><path d="M54.68 27.81a3 3 0 0 0 0-.25 6 6 0 0 0-6-6 5 5 0 0 0-.62 0 4 4 0 0 0-.44.06h-.08l-.25.06a5 5 0 0 0-.8.25.7.7 0 0 0-.19.08 2 2 0 0 0-.31.14 12.16 12.16 0 0 0-11.88-9.6c-.39 0-.77 0-1.15.05l-.38.05h-.31l-.53.08-.41.09-.45.11a13 13 0 0 0-1.5.53l-.54.25a11 11 0 0 0-1 .56l-.24.15-.23.14c-.17.1-.32.22-.48.34l-.31.24-.41.34-.27.25c-.12.1-.23.21-.34.32l-.4.42c-.14.14-.26.29-.38.44s-.25.3-.36.46a5 5 0 0 0-.31.45 11 11 0 0 0-.9 1.55c-.08.18-.17.36-.25.54s-.19.44-.26.67-.1.3-.14.44-.11.37-.16.56-.1.41-.14.61-.09.47-.13.7h-.44a10.5 10.5 0 0 0-9.76 6.61 10.3 10.3 0 0 0-.76 3.9A10.51 10.51 0 0 0 21.59 44h32.27a8.11 8.11 0 0 0 .81-16.19Z" fill="#6e9eff"/><path d="M11.83 29.58A10.5 10.5 0 0 1 21.59 23H22c0-.24.08-.48.13-.7s.09-.42.14-.61.1-.37.16-.56.09-.3.14-.44.17-.45.26-.67.16-.36.25-.54A11 11 0 0 1 24 17.9a5 5 0 0 1 .31-.45c.12-.16.24-.31.36-.46s.25-.3.38-.44l.4-.42c.11-.11.22-.22.34-.32l.27-.25.41-.34.33-.22c.16-.12.31-.24.48-.34A12.79 12.79 0 0 0 15.92 4.38c.26.21.51.44.75.68a9.89 9.89 0 0 1-14 14 9 9 0 0 1-.67-.78 12.79 12.79 0 0 0 9.81 11.3Z" fill="#fedb41"/><path d="M53.87 43H52a1 1 0 0 0 0 2h1.87a9.11 9.11 0 0 0 1.8-18 7 7 0 0 0-7-6.42 6 6 0 0 0-.68 0 5 5 0 0 0-.55.07h-.11l-.25.06-.41.1a13.22 13.22 0 0 0-12.57-9.26c-.42 0-.83 0-1.28.06h-.7l-.63.1-.38.09-.5.12a14 14 0 0 0-1.61.56l-.6.27-.43.22a13.7 13.7 0 0 0-3.43-5.71 13.83 13.83 0 0 0-8.5-4A1 1 0 0 0 15 4a1 1 0 0 0 .3 1.15c.24.19.46.4.68.61a8.88 8.88 0 0 1-2 14.09 1 1 0 0 0 1 1.76A10.88 10.88 0 0 0 18.74 6a11.83 11.83 0 0 1 7.44 8.18l-.32.25-.41.34-.29.26c-.13.11-.26.24-.39.37l-.42.45c-.16.17-.3.34-.4.47s-.28.34-.41.51a6 6 0 0 0-.34.49 12 12 0 0 0-1 1.7c-.09.19-.18.38-.26.57s-.21.49-.28.72-.12.34-.16.47-.12.4-.18.61-.09.38-.14.56a12 12 0 0 0-1.5.15h-.12a12 12 0 0 0-1.37.33l-.17.05a11 11 0 0 0-1.27.5l-.18.08a11 11 0 0 0-1.17.65l-.17.11a11 11 0 0 0-1.08.81l-.15.17a11 11 0 0 0-1 1l-.09.1a11 11 0 0 0-.85 1.1 12 12 0 0 0-.77 1.33 11.8 11.8 0 0 1-7.6-7.28 10.88 10.88 0 0 0 6.66 1.79 1 1 0 0 0-.12-2 8.92 8.92 0 0 1-6.79-2.57 8 8 0 0 1-.6-.67 1 1 0 0 0-1.79.7 13.78 13.78 0 0 0 9.51 11.88 11.4 11.4 0 0 0-.46 3.23A11.52 11.52 0 0 0 21.59 45h26.24a1 1 0 0 0 0-2H21.59a9.52 9.52 0 0 1-9.51-9.51 9.3 9.3 0 0 1 .68-3.53A9.43 9.43 0 0 1 20.93 24v1.71a1 1 0 0 0 1 .92H22a1 1 0 0 0 .91-1.08v-.83a12 12 0 0 1 .09-1.6c0-.21.07-.42.11-.64s.09-.38.13-.55.09-.35.16-.54.08-.26.13-.4.15-.4.24-.61.14-.32.23-.5a10 10 0 0 1 .85-1.46 4 4 0 0 1 .26-.37c.1-.14.2-.27.35-.44s.21-.25.34-.39l.38-.4.32-.3.23-.2.39-.32.26-.2.09-.07c.1-.08.2-.15.31-.22h.05l.07-.05.09-.06h.08l.2-.13a10 10 0 0 1 1-.52l.47-.21a12 12 0 0 1 1.38-.54l.43-.1.36-.08.5-.08h1.66a11.2 11.2 0 0 1 10.73 8.12 7 7 0 0 0-3.19 5.87 7.1 7.1 0 0 0 1 3.6 1 1 0 0 0 1.72-1 5 5 0 0 1-.71-2.59 5 5 0 0 1 2.79-4.49l.18-.09h.18a4.5 4.5 0 0 1 .72-.22h.6a4 4 0 0 1 .5 0 5 5 0 0 1 5 5v.15a1 1 0 0 0 .9 1.1A7.11 7.11 0 0 1 53.87 43" fill="#002849"/><path d="M22.57 28.82a1 1 0 0 0-.5 1.32q.23.5.49 1a1 1 0 1 0 1.75-1q-.23-.4-.42-.83a1 1 0 0 0-1.32-.49m2.62 18.96a1 1 0 0 0-1.22.71l-1.53 5.7a1 1 0 1 0 1.93.52L25.9 49a1 1 0 0 0-.71-1.22m10.61.71-1.53 5.7a1 1 0 1 0 1.93.52L37.73 49a1 1 0 0 0-1.93-.52Zm11.83 0-1.53 5.7a1 1 0 1 0 1.9.51l1.56-5.7a1 1 0 0 0-1.93-.52ZM28.3 59.62a1 1 0 0 0 1-.74L31.91 49a1 1 0 1 0-1.91-.51l-2.65 9.88a1 1 0 0 0 1 1.26Zm13.52-11.13L38.9 59.36a1 1 0 1 0 1.93.52L43.75 49a1 1 0 1 0-1.93-.52Z" fill="#002849"/></svg>