<svg data-name="Layer 1" viewBox="0 0 64 64" xmlns="http://www.w3.org/2000/svg"><path d="M48.66 29.34a5 5 0 0 0-.62 0 4 4 0 0 0-.44.06h-.08l-.25.06a5 5 0 0 0-.8.25.7.7 0 0 0-.19.08A2 2 0 0 0 46 30a12.16 12.16 0 0 0-11.88-9.6c-.39 0-.77 0-1.15.05l-.38.05h-.31l-.53.08-.41.09-.45.11a13 13 0 0 0-1.5.53l-.54.25a11 11 0 0 0-1 .56l-.24.15-.23.14c-.17.1-.32.22-.48.34l-.31.24-.41.34-.27.25c-.12.1-.23.21-.34.32l-.4.42c-.14.14-.26.29-.38.44s-.25.3-.36.46a5 5 0 0 0-.31.45 11 11 0 0 0-.9 1.55c-.08.18-.17.36-.25.54s-.19.44-.26.67-.1.3-.14.44-.11.37-.16.56-.1.41-.14.61-.09.47-.13.7h-.44a10.5 10.5 0 0 0-9.76 6.61 10.3 10.3 0 0 0-.76 3.9 10.51 10.51 0 0 0 10.41 10.56h32.27a8.11 8.11 0 0 0 .81-16.19 3 3 0 0 0 0-.25 6 6 0 0 0-6.01-6.03" fill="#6e9eff"/><path d="M11.83 37.4a10.5 10.5 0 0 1 9.76-6.61H22c0-.24.08-.48.13-.7s.09-.42.14-.61.1-.37.16-.56.09-.3.14-.44.17-.45.26-.67.16-.36.25-.54a11 11 0 0 1 .9-1.55 5 5 0 0 1 .31-.45c.12-.16.24-.31.36-.46s.25-.3.38-.44l.4-.42c.11-.11.22-.22.34-.32l.27-.25.41-.34.31-.24c.16-.12.31-.24.48-.34a12.79 12.79 0 0 0-11.32-10.27c.26.21.51.44.75.68a9.89 9.89 0 0 1-14 14A9 9 0 0 1 2 26.1a12.79 12.79 0 0 0 9.81 11.3Z" fill="#fedb41"/><path d="M22.57 36.64a1 1 0 0 0-.5 1.32q.23.5.49 1a1 1 0 1 0 1.75-1q-.23-.4-.42-.83a1 1 0 0 0-1.32-.49" fill="#002849"/><path d="M11.38 28.58a8.89 8.89 0 0 1-8-2.42 8 8 0 0 1-.6-.67 1 1 0 0 0-1.79.7 13.78 13.78 0 0 0 9.51 11.88 11.4 11.4 0 0 0-.46 3.23 11.52 11.52 0 0 0 11.55 11.51h26.58a1 1 0 1 0 0-2H21.59a9.52 9.52 0 0 1-9.51-9.51 9.3 9.3 0 0 1 .68-3.53 9.42 9.42 0 0 1 8.17-5.93v1.71a1 1 0 0 0 1 .92H22a1 1 0 0 0 .91-1.08v-.83a12 12 0 0 1 .09-1.63c0-.21.07-.42.11-.64s.09-.38.13-.55.09-.35.16-.54.08-.26.13-.41.15-.39.24-.61.14-.32.23-.5a10 10 0 0 1 .85-1.46 5 5 0 0 1 .27-.38c.1-.14.2-.27.35-.44s.21-.25.34-.39l.36-.39.33-.31.22-.2.39-.32.26-.2.09-.07c.1-.08.2-.15.31-.22h.13l.1-.07h.08l.2-.13a10 10 0 0 1 1-.52l.48-.22a12 12 0 0 1 1.38-.48l.42-.1.36-.08.5-.08h1.64a11.2 11.2 0 0 1 10.73 8.12 7 7 0 0 0-3.19 5.87 7.1 7.1 0 0 0 1 3.6 1 1 0 1 0 1.72-1 5 5 0 0 1-.71-2.59 5 5 0 0 1 2.79-4.49l.19-.09h.18a4.4 4.4 0 0 1 .71-.22h.61a4 4 0 0 1 .5 0 5 5 0 0 1 5 5s0 .1 0 .14a1 1 0 0 0 .89 1.11A7.12 7.12 0 0 1 57 50.06a1 1 0 0 0 .89 1.79 9.12 9.12 0 0 0-2.27-17.09 7 7 0 0 0-7-6.42 6 6 0 0 0-.68 0 5 5 0 0 0-.55.07h-.11l-.26.06-.41.1a13.22 13.22 0 0 0-12.57-9.26c-.42 0-.83 0-1.28.06h-.7l-.63.1-.38.09-.5.12a14 14 0 0 0-1.55.72l-.59.27-.43.22a13.7 13.7 0 0 0-3.43-5.71 13.83 13.83 0 0 0-8.51-4 1 1 0 0 0-.75 1.82c.24.19.46.4.68.61a8.89 8.89 0 0 1 0 12.57 1 1 0 0 0 1.41 1.41 10.89 10.89 0 0 0 1.36-13.73A11.83 11.83 0 0 1 26.19 22l-.32.25-.41.34-.29.26c-.13.12-.26.24-.39.37l-.42.45c-.16.17-.31.34-.4.46s-.28.34-.41.51a6 6 0 0 0-.34.49 12 12 0 0 0-1 1.7c-.09.19-.18.38-.26.58s-.2.48-.28.72-.11.33-.15.47-.12.4-.18.61-.1.38-.14.57a12 12 0 0 0-1.5.15h-.12a12 12 0 0 0-1.37.33h-.17a11 11 0 0 0-1.27.5l-.18.08a11 11 0 0 0-1.18.66l-.16.11a11 11 0 0 0-1.09.81l-.13.11a11 11 0 0 0-1 1l-.08.1a11 11 0 0 0-.89 1.15 12 12 0 0 0-.76 1.31 11.8 11.8 0 0 1-7.6-7.28 10.9 10.9 0 0 0 8.1 1.61 1 1 0 1 0-.38-2Z" fill="#002849"/></svg>