<svg data-name="Layer 1" viewBox="0 0 64 64" xmlns="http://www.w3.org/2000/svg"><path d="M26.75 48.64h28.11a7.07 7.07 0 0 0 .71-14.1 2 2 0 0 0 0-.22 5.25 5.25 0 0 0-5.25-5.25 4 4 0 0 0-.54 0l-.38.05h-.07l-.22.05a4 4 0 0 0-.69.21l-.16.07a2 2 0 0 0-.27.13 10.59 10.59 0 0 0-10.35-8.36h-1.6l-.46.07-.35.08-.39.1a11 11 0 0 0-1.31.46l-.47.21a10 10 0 0 0-.9.49l-.43.28-.36.25a4 4 0 0 0-.33.25l-.35.3-.24.21-.3.28-.35.37c-.12.13-.23.25-.33.38s-.21.26-.32.4a5 5 0 0 0-.27.39 9.5 9.5 0 0 0-.78 1.35c-.07.16-.15.31-.21.47s-.16.38-.23.58-.09.26-.13.38-.1.33-.14.49-.09.35-.13.53-.08.41-.11.61h-.38a9.15 9.15 0 1 0 0 18.31Z" fill="#83d9f2"/><path d="M9.3 37h8.64a9.15 9.15 0 0 1 8.8-6.63h.38c0-.21.07-.41.11-.61s.08-.36.13-.53.09-.33.14-.49.08-.26.13-.38.15-.39.23-.58.14-.32.21-.47a9.5 9.5 0 0 1 .78-1.35 5 5 0 0 1 .27-.39c.1-.14.21-.27.32-.4s.21-.26.33-.38l.35-.37.3-.28.24-.21.35-.3a4 4 0 0 1 .33-.25 4.14 4.14 0 0 0-3.43-1.82h-.74l-.24.05-.23.06-.16.05a4 4 0 0 0-.49.21 8.37 8.37 0 0 0-8.18-6.6 8.2 8.2 0 0 0-2.09.27l-.39.11-.39.13-.38.15a8.3 8.3 0 0 0-1.43.78l-.33.23-.32.25-.32.27-.27.27-.23.24a8 8 0 0 0-.56.67L11 19a8 8 0 0 0-.61 1c-.06.12-.12.24-.17.37s-.1.25-.15.38a8.4 8.4 0 0 0-.41 1.6.3.3 0 0 0 0 .07H9.3A7.23 7.23 0 1 0 9.3 37" fill="#6e9eff"/><path d="M27.55 35.32a1 1 0 0 0-.5 1.32q.2.44.43.86a1 1 0 1 0 1.75-1c-.13-.23-.25-.47-.36-.71a1 1 0 0 0-1.32-.47" fill="#002849"/><path d="M9.3 38h7.41a10.1 10.1 0 0 0 10 11.68h22.51a1 1 0 1 0 0-2H26.75A8.15 8.15 0 0 1 26 31.37v1.38a1 1 0 0 0 1 .92h.08a1 1 0 0 0 .91-1.08v-.71a10 10 0 0 1 .09-1.39c0-.18.06-.36.1-.54s.07-.33.11-.48.08-.3.13-.46.07-.23.12-.35.13-.34.21-.52.12-.28.19-.43a9 9 0 0 1 .73-1.26 4 4 0 0 1 .22-.32c.09-.12.17-.23.3-.38s.17-.21.29-.33l.31-.33.3-.28.18-.17.35-.29.21-.17h.06l.33-.23.39-.25a9 9 0 0 1 .81-.44l.43-.2a10 10 0 0 1 1.19-.42l.37-.09.3-.07.44-.07h1.44a9.63 9.63 0 0 1 9.19 6.88 6.19 6.19 0 0 0-2.75 5.17 6.33 6.33 0 0 0 .88 3.2 1 1 0 0 0 1.72-1 4.26 4.26 0 0 1-.6-2.19 4.21 4.21 0 0 1 2.35-3.8l.13-.06h.18a3.7 3.7 0 0 1 .61-.18h.93a4.26 4.26 0 0 1 4.25 4.25v.12a1 1 0 0 0 .9 1.1 6.07 6.07 0 0 1-.61 12.1h-.73a1 1 0 0 0 0 2h.73a8.07 8.07 0 0 0 1.68-16 6.26 6.26 0 0 0-6.22-5.61 5 5 0 0 0-.6 0 4 4 0 0 0-.5.07h-.09l-.22.05-.24.06a11.65 11.65 0 0 0-11-8h-1.75l-.56.09-.33.07-.45.11a12 12 0 0 0-1.42.5l-.52.24a11 11 0 0 0-1 .53l-.1.06a5.13 5.13 0 0 0-3.61-1.49h-.47a3 3 0 0 0-.45.06l-.25.05a9.43 9.43 0 0 0-8.85-6.3 9 9 0 0 0-2.31.29 4 4 0 0 0-.49.14h-.11l-.3.1-.44.17a9 9 0 0 0-1.58.86l-.37.26-.35.28-.37.32-.29.29-.26.27a10 10 0 0 0-.64.76l-.24.35a9 9 0 0 0-.68 1.17c-.07.14-.14.29-.2.43s-.12.29-.16.41a9 9 0 0 0-.31 1 8.2 8.2 0 0 0-3.43 1 1 1 0 1 0 1 1.75 6.2 6.2 0 0 1 2.21-.71v.86a1 1 0 0 0 1 .92h.08a1 1 0 0 0 .92-1.07v-.55a7 7 0 0 1 .08-1.12 7.4 7.4 0 0 1 .42-1.5c0-.11.08-.22.13-.33s.09-.21.15-.32a7 7 0 0 1 .54-.93l.19-.28a8 8 0 0 1 .5-.6l.2-.21.24-.24.29-.25.29-.23.27-.19a7.4 7.4 0 0 1 1.2-.66l.36-.14.19-.06h.15l.31-.09a7 7 0 0 1 1.84-.23 7.41 7.41 0 0 1 7 5.14 5.18 5.18 0 0 0-2.14 4.17 5.1 5.1 0 0 0 .73 2.64 1 1 0 1 0 1.71-1 3.1 3.1 0 0 1-.44-1.6 3.16 3.16 0 0 1 1.74-2.81 3 3 0 0 1 .35-.15h.71a3.14 3.14 0 0 1 2.28.69l-.11.11c-.12.11-.24.22-.35.33l-.37.39c-.14.15-.27.3-.35.41s-.25.3-.36.45a5 5 0 0 0-.3.43 10.3 10.3 0 0 0-.86 1.49c-.08.17-.16.35-.23.51s-.18.44-.25.65-.1.29-.13.41-.1.35-.15.54-.07.27-.1.4c-.26 0-.52 0-.78.07h-.26l-.51.08-.3.07-.45.11-.32.1-.41.14-.32.13-.39.16-.31.15-.37.19-.3.17-.35.22-.29.2-.33.24-.28.22-.26.04-.26.23-.3.29-.24.25-.2.33-.22.26-.26.35-.19.27-.24.39-.16.27c-.08.14-.15.29-.23.44l-.12.25c-.08.17-.15.35-.22.53l-.08.19H9.3a6.22 6.22 0 0 1-5.49-9.16 1 1 0 1 0-1.76-.95A8.22 8.22 0 0 0 9.3 38" fill="#002849"/><path d="M9.7 28.27a1 1 0 0 0 1.75-1q-.15-.27-.28-.55a1 1 0 0 0-1.82.82c.11.27.23.46.35.73" fill="#002849"/></svg>