<svg data-name="Layer 1" viewBox="0 0 64 64" xmlns="http://www.w3.org/2000/svg"><path d="M53.4 31.45a3 3 0 0 0 0-.31 7.11 7.11 0 0 0-7.94-7.06 7 7 0 0 0-.75.13h-.11c-.23.06-.45.12-.66.2h-.08a7 7 0 0 0-.69.3 14.35 14.35 0 0 0-14-11.32c-.49 0-1 0-1.44.08h-.21c-.39 0-.78.1-1.16.18l-.39.09c-.31.07-.63.15-.93.24l-.45.15c-.27.09-.55.19-.81.3l-.48.21-.73.35-.48.26-.67.41-.47.31-.61.46-.44.36c-.19.16-.38.34-.56.51l-.41.39c-.18.19-.36.39-.53.58s-.24.26-.35.4-.38.5-.57.76l-.22.3q-.37.54-.68 1.12c-.07.12-.12.25-.18.37-.14.27-.28.55-.4.83s-.12.3-.18.46-.21.54-.3.81-.09.32-.14.48-.16.56-.22.85-.06.32-.09.48-.08.35-.1.53h-.53a12.39 12.39 0 0 0 0 24.78h38a9.56 9.56 0 0 0 1-19.08Z" fill="#6e9eff"/><path d="M48.83 49.53H14.39a11.39 11.39 0 0 1-9.12-18.21 1 1 0 1 0-1.6-1.2 13.39 13.39 0 0 0 10.72 21.41h34.44a1 1 0 0 0 0-2m5.56-18.94A8.12 8.12 0 0 0 46.33 23a8 8 0 0 0-1.2.1h-.12a8 8 0 0 0-1.17.28 15.42 15.42 0 0 0-14.7-11c-.5 0-1 0-1.49.08l-.44.06c-.32 0-.64.08-1 .15l-.68.15-.64.17-.81.26-.42.16c-.31.12-.62.24-.92.38l-.21.1a15.4 15.4 0 0 0-4.91 3.7l-.12.14c-.22.25-.42.51-.62.78l-.25.34c-.17.23-.33.47-.48.71l-.31.51c-.12.21-.25.43-.36.65s-.22.45-.33.68-.17.36-.25.55-.24.63-.35.94c0 .12-.09.24-.13.37-.14.47-.27.94-.37 1.42a13.33 13.33 0 0 0-6.66 2 1 1 0 1 0 1 1.71 11.3 11.3 0 0 1 5.36-1.63c0 .34-.05.69-.05 1v1.15a1 1 0 0 0 1 .93h.07a1 1 0 0 0 .92-1.07v-1a13.3 13.3 0 0 1 .31-2.38c0-.14 0-.27.08-.41s.14-.56.22-.84.08-.28.12-.41.18-.51.28-.76.11-.3.17-.44.2-.42.3-.62.17-.35.26-.52l.17-.28A13.5 13.5 0 0 1 21.28 17h.05c.29-.21.59-.4.89-.59l.13-.08c.29-.17.58-.33.88-.48l.22-.11q.41-.2.84-.36l.35-.13.76-.25.54-.14.63-.15c.29-.06.58-.1.87-.13l.36-.05c.43 0 .87-.07 1.32-.07A13.4 13.4 0 0 1 42 24.3a8.1 8.1 0 0 0-2.64 11 1 1 0 1 0 1.72-1 6.1 6.1 0 0 1 2.53-8.59 6 6 0 0 1 .61-.26h.06a6 6 0 0 1 .62-.19 6.11 6.11 0 0 1 7.5 5.95 2 2 0 0 1 0 .18 1 1 0 0 0 .89 1.12A8.56 8.56 0 0 1 55 49.14a1 1 0 0 0 .3 2 1 1 0 0 0 .3 0 10.56 10.56 0 0 0-1.19-20.47Z" fill="#002849"/><path d="M16.57 35.79a1 1 0 0 0 .87-1.49c-.18-.32-.35-.65-.5-1a1 1 0 1 0-1.82.82q.26.58.57 1.14a1 1 0 0 0 .88.53" fill="#002849"/></svg>