<svg data-name="Layer 1" viewBox="0 0 64 64" xmlns="http://www.w3.org/2000/svg"><path d="M53.4 25.72a3 3 0 0 0 0-.31 7.11 7.11 0 0 0-7.94-7.06 7 7 0 0 0-.75.13h-.11c-.23.06-.45.12-.66.2h-.08a7 7 0 0 0-.69.3 14.35 14.35 0 0 0-14-11.32c-.49 0-1 0-1.44.08h-.21c-.39 0-.78.1-1.16.18l-.39.09c-.31.07-.63.15-.93.24l-.45.15c-.27.09-.55.19-.81.3l-.53.3-.73.35-.52.27-.67.41-.47.31-.61.46-.44.36c-.19.16-.38.34-.56.51l-.41.39c-.18.19-.36.39-.53.58s-.24.26-.35.4-.38.5-.57.76l-.22.3q-.37.54-.68 1.12c-.07.12-.12.25-.18.37-.14.27-.28.55-.4.83s-.12.3-.18.46-.21.54-.3.81-.09.32-.14.48-.16.56-.22.85-.06.32-.09.48-.08.35-.1.53h-.53a12.39 12.39 0 0 0 0 24.78h38.09a9.56 9.56 0 0 0 1-19.08Z" fill="#6e9eff"/><path d="M38.37 38.13H26.15a1 1 0 1 0 0 2h12.22a3.6 3.6 0 1 0-3.53-3.6 1 1 0 0 0 2 0 1.53 1.53 0 1 1 1.53 1.6m13.28.61a4.73 4.73 0 1 0-9.46 0 1 1 0 0 0 2 0 2.73 2.73 0 1 1 2.73 2.83h-1.6a1 1 0 0 0 0 2h1.6a4.79 4.79 0 0 0 4.73-4.83m-33.97 3.84a1 1 0 0 0 1 1h23.24a1 1 0 0 0 0-2H18.68a1 1 0 0 0-1 1M33 55.26a1.57 1.57 0 0 1-1.53-1.6 1 1 0 0 0-2 0 3.53 3.53 0 1 0 3.53-3.6H20.82a1 1 0 0 0 0 2H33a1.6 1.6 0 0 1 0 3.2" fill="#002849"/><path d="M43.55 54.07A1 1 0 0 0 45 54a4.86 4.86 0 0 0 1.36-3.39 4.79 4.79 0 0 0-4.73-4.83H21.7a1 1 0 0 0 0 2h19.89a2.79 2.79 0 0 1 2.73 2.83 2.87 2.87 0 0 1-.8 2 1 1 0 0 0 .03 1.46" fill="#002849"/><path d="M38.86 50.65a1 1 0 0 0-2 0 4.79 4.79 0 0 0 4.73 4.83 1 1 0 0 0 0-2 2.79 2.79 0 0 1-2.73-2.83m-26.51-3.83a1 1 0 0 0 1 1h5.26a1 1 0 1 0 0-2h-5.26a1 1 0 0 0-1 1m42.04-21.97a8.12 8.12 0 0 0-8.06-7.54 8 8 0 0 0-1.19.1H45a8 8 0 0 0-1.16.27 15.42 15.42 0 0 0-14.7-11c-.5 0-1 0-1.49.08l-.41.05c-.33 0-.66.09-1 .15l-.66.15-.66.17-.8.25-.44.16c-.31.12-.61.24-.91.38l-.22.11a15.4 15.4 0 0 0-4.91 3.7l-.11.12c-.22.25-.43.52-.63.79l-.25.33c-.17.24-.33.48-.49.72l-.3.49c-.13.22-.25.43-.37.66s-.22.44-.32.67-.17.37-.25.57-.23.61-.34.92c0 .13-.09.26-.14.39-.14.46-.27.94-.37 1.42a13.39 13.39 0 0 0-3.4 26.26 1 1 0 0 0 .55-1.92 11.39 11.39 0 0 1 2.6-22.3c0 .35-.05.69-.05 1v1.15a1 1 0 0 0 1 .93h.08a1 1 0 0 0 .92-1.07v-1a13.3 13.3 0 0 1 .23-2.36c0-.14 0-.27.08-.41s.14-.56.22-.84.08-.28.12-.41.18-.51.28-.76.11-.3.17-.44.2-.42.3-.62.17-.35.26-.52l.17-.29a13.5 13.5 0 0 1 3.67-4.05h.06c.28-.21.58-.4.88-.58l.14-.09c.28-.17.57-.32.86-.47l.24-.12q.4-.19.82-.36l.37-.14.74-.25.62-.17.6-.14c.3-.06.6-.1.91-.14h.32c.43 0 .88-.07 1.32-.07A13.4 13.4 0 0 1 42 18.56a8.1 8.1 0 0 0-2.64 11 1 1 0 1 0 1.72-1 6.1 6.1 0 0 1 2.53-8.59 6 6 0 0 1 .6-.26h.08a6 6 0 0 1 .59-.17h.07a6.1 6.1 0 0 1 7.49 5.95 2 2 0 0 1 0 .18 1 1 0 0 0 .89 1.12 8.56 8.56 0 0 1-.36 17.07 1 1 0 0 0 .06 2h.06a10.56 10.56 0 0 0 1.33-20.93Z" fill="#002849"/><path d="M16.57 30.05a1 1 0 0 0 .87-1.49q-.27-.48-.5-1a1 1 0 1 0-1.82.82q.26.58.57 1.14a1 1 0 0 0 .88.53" fill="#002849"/></svg>