<svg data-name="Layer 1" viewBox="0 0 64 64" xmlns="http://www.w3.org/2000/svg"><path d="M53.16 10.71A29.9 29.9 0 0 0 34.65 2a24 24 0 0 1 1.76 1.59 23.19 23.19 0 0 1-32.8 32.8A24 24 0 0 1 2 34.67a30 30 0 1 0 51.14-24Z" fill="#fedb41"/><path d="M57.64 18.44a1 1 0 1 0 1.77-.93A31.07 31.07 0 0 0 34.74 1 1 1 0 0 0 34 2.81a22.19 22.19 0 0 1-13.16 39.4 1 1 0 0 0 0 2A24.19 24.19 0 0 0 37.66 3.49a29.07 29.07 0 0 1 20 15Z" fill="#002849"/><path d="M60.17 21.67a1 1 0 0 0-.64 1.26A29 29 0 1 1 3.47 37.68a24.1 24.1 0 0 0 11.35 6 1 1 0 0 0 .43-2 22.1 22.1 0 0 1-10.93-6A23 23 0 0 1 2.8 34a1 1 0 0 0-1.8.76 31 31 0 1 0 60.43-12.45 1 1 0 0 0-1.26-.64" fill="#002849"/></svg>