<svg data-name="Layer 1" viewBox="0 0 64 64" xmlns="http://www.w3.org/2000/svg"><path d="M53.4 21a3 3 0 0 0 0-.31 7.11 7.11 0 0 0-7.94-7.06 7 7 0 0 0-.74.13h-.11c-.23.06-.45.12-.66.2h-.09a7 7 0 0 0-.69.3A14.35 14.35 0 0 0 29.12 3h-1.35a14.37 14.37 0 0 0-12.86 12.31h-.53a12.39 12.39 0 0 0 0 24.78h38.06A9.56 9.56 0 0 0 53.4 21" fill="#677a91"/><path d="M14.78 15.31h.13A14.37 14.37 0 0 1 27.76 3.09a14.33 14.33 0 0 0-12.98 12.22M43.83 14a7 7 0 0 0-.69.3 7 7 0 0 1 .69-.3" fill="#6e9eff"/><path d="M15.38 47.23a1 1 0 0 0-1-1H13l.94-.94a1 1 0 0 0-1.41-1.41l-.94.94v-1.34a1 1 0 0 0-2 0v1.34l-.94-.94a1 1 0 0 0-1.41 1.41l.94.94h-1.3a1 1 0 0 0 0 2h1.33l-.94.94a1 1 0 1 0 1.41 1.41l.94-.94V51a1 1 0 0 0 2 0v-1.36l.94.94A1 1 0 0 0 14 49.17l-1-.94h1.34a1 1 0 0 0 1.04-1m21.37 0a1 1 0 0 0-1-1h-1.34l.94-.94a1 1 0 0 0-1.41-1.41l-.94.94v-1.34a1 1 0 0 0-2 0v1.34l-.94-.94a1 1 0 0 0-1.41 1.41l.94.94h-1.34a1 1 0 0 0 0 2h1.34l-.94.94a1 1 0 1 0 1.41 1.41l.94-.94V51a1 1 0 0 0 2 0v-1.36l.94.94a1 1 0 0 0 1.41-1.41l-.94-.94h1.34a1 1 0 0 0 1-1m21.38 0a1 1 0 0 0-1-1h-1.34l.94-.94a1 1 0 0 0-1.41-1.41l-.94.94v-1.34a1 1 0 0 0-2 0v1.34l-.94-.94a1 1 0 0 0-1.44 1.4l.94.94h-1.31a1 1 0 0 0 0 2H51l-.94.94a1 1 0 1 0 1.41 1.41l.94-.94V51a1 1 0 0 0 2 0v-1.36l.94.94a1 1 0 0 0 1.41-1.41l-.94-.94h1.34a1 1 0 0 0 .97-1m-32.07 10a1 1 0 0 0-1-1h-1.33l.94-.94a1 1 0 0 0-1.41-1.41l-.94.94v-1.34a1 1 0 0 0-2 0v1.34l-.94-.94a1 1 0 0 0-1.38 1.4l.94.94h-1.38a1 1 0 0 0 0 2h1.34l-.94.94a1 1 0 1 0 1.41 1.41l.94-.94V61a1 1 0 0 0 2 0v-1.36l.94.94a1 1 0 0 0 1.41-1.41l-.94-.94h1.34a1 1 0 0 0 1-1m21.38 0a1 1 0 0 0-1-1H45.1l.94-.94a1 1 0 0 0-1.41-1.41l-.94.94v-1.34a1 1 0 0 0-2 0v1.34l-.94-.94a1 1 0 0 0-1.41 1.41l.94.94h-1.34a1 1 0 0 0 0 2h1.34l-.94.94a1 1 0 1 0 1.41 1.41l.94-.94V61a1 1 0 0 0 2 0v-1.36l.94.94A1 1 0 0 0 46 59.17l-.94-.94h1.34a1 1 0 0 0 1.04-1M14.39 41.08h38.05a10.53 10.53 0 0 0 7.16-2.8 1 1 0 0 0-1.36-1.47 8.54 8.54 0 0 1-5.8 2.27H14.39A11.39 11.39 0 0 1 4.5 22a1 1 0 0 0-1.74-1 13.39 13.39 0 0 0 11.63 20Zm40-20.94a8.12 8.12 0 0 0-8.06-7.54 8 8 0 0 0-1.19.1h-.12a8 8 0 0 0-1.17.28A15.42 15.42 0 0 0 29.12 2h-1.36a15.37 15.37 0 0 0-13.8 12.22 13.3 13.3 0 0 0-7.2 2.4 1 1 0 1 0 1.15 1.64 11.3 11.3 0 0 1 5.8-2c0 .35-.05.69-.05 1v1.15a1 1 0 0 0 1 .93h.08a1 1 0 0 0 .92-1.07v-1a13 13 0 0 1 .09-1.47 1 1 0 0 0 .2-.45 13.43 13.43 0 0 1 12-11.37H28c.38 0 .76-.05 1.15-.05A13.4 13.4 0 0 1 42 13.85a8.1 8.1 0 0 0-2.64 11 1 1 0 0 0 1.72-1 6.1 6.1 0 0 1 2.53-8.59 6 6 0 0 1 .6-.26h.07a6 6 0 0 1 .6-.18 6.1 6.1 0 0 1 7.49 5.95 2 2 0 0 1 0 .18A1 1 0 0 0 53.3 22a8.53 8.53 0 0 1 7.7 8.52 9 9 0 0 1-.1 1.31 1 1 0 0 0 .84 1.17h.15a1 1 0 0 0 1-.85 11 11 0 0 0 .11-1.63 10.52 10.52 0 0 0-8.61-10.38" fill="#002849"/><path d="M16.57 25.34a1 1 0 0 0 .87-1.49q-.27-.48-.5-1a1 1 0 1 0-1.82.82q.26.58.57 1.14a1 1 0 0 0 .88.53" fill="#002849"/></svg>