<svg data-name="Layer 1" viewBox="0 0 64 64" xmlns="http://www.w3.org/2000/svg"><path d="M54.53 26.44a3 3 0 0 0 0-.26A6.16 6.16 0 0 0 48.37 20a5 5 0 0 0-.63 0h-.51l-.27.07a6 6 0 0 0-.64.18h-.09a5 5 0 0 0-.6.26 12.44 12.44 0 0 0-12.15-9.82c-.4 0-.79 0-1.18.05l-.39.05h-.32l-.54.09-.42.1-.46.11a13 13 0 0 0-1.54.54l-.56.25a11 11 0 0 0-1.06.57l-.5.33c-.17.1-.33.23-.49.35l-.31.24c-.14.11-.29.23-.42.35l-.13.11a1 1 0 0 0-.15.14c-.12.1-.23.22-.35.33l-.41.43c-.14.15-.27.29-.39.45s-.25.3-.37.47a6 6 0 0 0-.32.46 11 11 0 0 0-.92 1.59c-.09.18-.17.36-.25.56s-.19.45-.27.69l-.15.45c-.05.15-.11.38-.16.57s-.1.42-.15.62-.1.48-.13.72h-.45a10.75 10.75 0 0 0 0 21.5h33a8.3 8.3 0 0 0 .83-16.55Z" fill="#677a91"/><path fill="#6e9eff" d="M45.62 20.66a5 5 0 0 1 .6-.26 6 6 0 0 0-.6.26m.69-.29a6 6 0 0 1 .91-.25l-.27.07a6 6 0 0 0-.64.18m-16.15-9.09.46-.11.42-.1-.42.1Zm17.08 8.83h.17-.16Zm-21.53-6.55-.42.35c.13-.12.28-.23.42-.35l.31-.24c.16-.12.32-.24.49-.35-.17.1-.33.23-.49.35Zm6.58-2.67c.39 0 .78-.05 1.18-.05-.4 0-.79.02-1.18.05"/><path d="M12.74 25a10.72 10.72 0 0 1 7.95-3.51h.45c0-.24.08-.49.13-.72s.1-.43.15-.62.1-.38.16-.57.1-.3.15-.45.17-.46.27-.69.16-.37.25-.56a11 11 0 0 1 .92-1.59 6 6 0 0 1 .32-.46c.12-.16.24-.32.37-.47s.25-.3.39-.45l.41-.43c.11-.11.23-.23.35-.33a1 1 0 0 1 .15-.14A8.69 8.69 0 1 0 12.74 25" fill="#fedb41"/><path d="M61.84 36.59a1 1 0 0 0 1.1-.89 9.31 9.31 0 0 0-7.42-10.13A7.18 7.18 0 0 0 48.4 19h-.57l-.57.07H47a7 7 0 0 0-.73.18 13.5 13.5 0 0 0-12.8-9.41c-.43 0-.85 0-1.31.06h-.77l-.64.11-.39.09-.51.13a14 14 0 0 0-1.65.58l-.61.27a12 12 0 0 0-1.15.62c-.19.11-.37.24-.5.33s-.28.19-.46.31a9.68 9.68 0 0 0-16.48.1 1 1 0 1 0 1.7 1.06 7.69 7.69 0 0 1 13.25.31l-.41.43c-.16.17-.31.34-.41.48-.13.15-.26.31-.38.47a6 6 0 0 0-.34.49 12 12 0 0 0-1 1.64c-.08.17-.16.34-.23.51v.08c-.1.24-.21.49-.28.73s-.12.34-.16.48v.12l-.14.5c-.05.19-.1.4-.14.6-.38 0-.75 0-1.13.09l-.36.06c-.25 0-.5.08-.75.14l-.42.11-.8.36-.43.16-.57.24-.42.2-.58.3-.41.24-.55.36-.38.28-.52.42-.35.3-.13.11a7.64 7.64 0 0 1-3.08-6.16 1 1 0 0 0-2 0 9.62 9.62 0 0 0 3.76 7.65A11.74 11.74 0 0 0 20.69 44h33a9.2 9.2 0 0 0 5.63-1.9 1 1 0 1 0-1.21-1.59A7.22 7.22 0 0 1 53.7 42h-33a9.74 9.74 0 0 1-.63-19.46v1.76a1 1 0 0 0 1 .92h.08a1 1 0 0 0 .91-1.08v-.85a11.5 11.5 0 0 1 .23-2.3c0-.19.09-.39.14-.59s.09-.34.15-.53.08-.27.14-.41.16-.41.25-.63.1-.22.15-.34l.07-.16a10.6 10.6 0 0 1 .81-1.5 5 5 0 0 1 .27-.39c.1-.14.21-.28.36-.45s.21-.26.35-.4l.36-.39.29-.28.14-.13.14-.12.4-.33.27-.21h.06c.11-.08.21-.16.37-.26l.46-.3a10 10 0 0 1 1-.52l.51-.23a12 12 0 0 1 1.41-.5l.43-.11.37-.09.5-.08h1.72a11.48 11.48 0 0 1 11 8.33 7.16 7.16 0 0 0-2.25 9.67 1 1 0 1 0 1.72-1 5.16 5.16 0 0 1 2.31-7.34l.23-.1a5 5 0 0 1 .75-.23h.15a5 5 0 0 1 .91-.09h.08a5.17 5.17 0 0 1 5.17 5.17s0 .1 0 .15a1 1 0 0 0 .89 1.11A7.31 7.31 0 0 1 61 35.49a1 1 0 0 0 .84 1.1M16.22 2.32v2.45a1 1 0 1 0 2 0V2.32a1 1 0 0 0-2 0M2 16.53a1 1 0 0 0 0 2h2.46a1 1 0 1 0 0-2ZM5.76 6.07a1 1 0 0 0 0 1.41l1.73 1.74A1 1 0 0 0 8.91 7.8L7.17 6.07a1 1 0 0 0-1.41 0" fill="#002849"/><path d="M5.76 29a1 1 0 0 0 1.41 0l1.74-1.74a1 1 0 0 0-1.41-1.41l-1.74 1.74a1 1 0 0 0 0 1.41M27.28 6.07 25.54 7.8A1 1 0 1 0 27 9.22l1.74-1.74a1 1 0 0 0-1.41-1.41ZM22.64 27a1 1 0 1 0-1.82.82q.26.58.57 1.14a1 1 0 0 0 1.75-1q-.27-.42-.5-.96m-.88 23a1 1 0 0 0-1-1H20l.55-.55A1 1 0 0 0 19.11 47l-.55.55v-.75a1 1 0 0 0-2 0v.78L16 47a1 1 0 0 0-1.41 1.41l.55.55h-.78a1 1 0 0 0 0 2h.78l-.55.55A1 1 0 1 0 16 52.95l.55-.55v.78a1 1 0 0 0 2 0v-.78l.55.55a1 1 0 0 0 1.41-1.41L20 51h.78a1 1 0 0 0 .98-1m18.18 0a1 1 0 0 0-1-1h-.78l.55-.55A1 1 0 0 0 37.3 47l-.55.55v-.75a1 1 0 0 0-2 0v.78L34.2 47a1 1 0 0 0-1.41 1.41l.55.55h-.78a1 1 0 1 0 0 2h.78l-.55.55a1 1 0 1 0 1.41 1.41l.55-.55v.78a1 1 0 0 0 2 0v-.75l.55.55a1 1 0 0 0 1.41-1.41l-.55-.54h.78a1 1 0 0 0 1-1m18.19 0a1 1 0 0 0-1-1h-.78l.55-.55A1 1 0 0 0 55.48 47l-.55.55v-.75a1 1 0 0 0-2 0v.78l-.54-.58A1 1 0 0 0 51 48.44l.55.55h-.78a1 1 0 0 0 0 2h.78l-.55.55a1 1 0 1 0 1.41 1.41l.55-.55v.78a1 1 0 0 0 2 0v-.78l.55.55a1 1 0 0 0 1.41-1.41l-.57-.54h.78a1 1 0 0 0 1-1m-27.28 8.49a1 1 0 0 0-1-1h-.78l.55-.55a1 1 0 0 0-1.41-1.41l-.55.55v-.78a1 1 0 0 0-2 0v.78l-.55-.55a1 1 0 0 0-1.41 1.41l.55.55h-.78a1 1 0 1 0 0 2h.78l-.55.55a1 1 0 1 0 1.41 1.41l.55-.55v.78a1 1 0 0 0 2 0v-.78l.55.55A1 1 0 0 0 29.62 60l-.55-.55h.78a1 1 0 0 0 1-.96m18.15 0a1 1 0 0 0-1-1h-.78l.55-.55a1 1 0 0 0-1.41-1.41l-.55.55v-.78a1 1 0 0 0-2 0v.78l-.55-.55a1 1 0 0 0-1.41 1.41l.55.55h-.78a1 1 0 0 0 0 2h.78l-.55.55a1 1 0 1 0 1.41 1.41l.55-.55v.78a1 1 0 0 0 2 0v-.78l.55.55A1 1 0 0 0 47.81 60l-.55-.55H48a1 1 0 0 0 1-.96" fill="#002849"/></svg>