<svg data-name="Layer 1" viewBox="0 0 64 64" xmlns="http://www.w3.org/2000/svg"><path d="M54.68 26a3 3 0 0 0 0-.25 6 6 0 0 0-6-6 5 5 0 0 0-.62 0 4 4 0 0 0-.44.06h-.08l-.25.06a5 5 0 0 0-.8.25.7.7 0 0 0-.19.08 2 2 0 0 0-.31.14 12.16 12.16 0 0 0-11.88-9.6c-.39 0-.77 0-1.15.05l-.38.05h-.31l-.53.08-.44.08-.45.11a13 13 0 0 0-1.5.53l-.54.25a11 11 0 0 0-1 .56l-.24.15-.23.15c-.17.1-.32.22-.48.34l-.31.24-.41.34-.27.25c-.12.1-.23.21-.34.32l-.4.42c-.14.14-.26.29-.38.44s-.25.3-.36.46a5 5 0 0 0-.31.45 11 11 0 0 0-.9 1.55c-.08.18-.17.36-.25.54s-.19.44-.26.67-.1.3-.14.44-.11.37-.16.56-.1.41-.14.61-.09.47-.13.7h-.44a10.5 10.5 0 0 0-9.76 6.61 10.3 10.3 0 0 0-.76 3.9 10.51 10.51 0 0 0 10.45 10.56h32.27A8.11 8.11 0 0 0 54.68 26" fill="#677a91"/><rect x="20.21" y="49.76" fill="#6e9eff"/><rect x="38.4" y="49.76" fill="#6e9eff"/><path d="m27.3 12.78.23-.15-.23.14Z" fill="#6e9eff"/><path d="M11.83 27.74a10.5 10.5 0 0 1 9.76-6.61H22c0-.24.08-.48.13-.7s.09-.42.14-.61.1-.37.16-.56.09-.3.14-.44.17-.45.26-.67.16-.36.25-.54a11 11 0 0 1 .9-1.55 5 5 0 0 1 .31-.45c.12-.16.24-.31.36-.46s.25-.3.38-.44l.4-.42c.11-.11.22-.22.34-.32l.27-.25.41-.34.31-.24c.16-.12.31-.24.48-.34A12.79 12.79 0 0 0 15.92 2.54c.26.21.51.44.75.68a9.89 9.89 0 1 1-14 14 9 9 0 0 1-.67-.78 12.79 12.79 0 0 0 9.81 11.3Z" fill="#fedb41"/><path d="M61.86 38.41a9.12 9.12 0 0 0-6.2-13.31 7 7 0 0 0-7-6.42 6 6 0 0 0-.68 0 5 5 0 0 0-.56.07h-.11l-.25.06-.41.1a13.1 13.1 0 0 0-3.43-5.57 1 1 0 1 0-1.39 1.44 11.1 11.1 0 0 1 3 5 7 7 0 0 0-3.19 5.87 7.1 7.1 0 0 0 1 3.6 1 1 0 0 0 1.72-1 5 5 0 0 1-.71-2.59 5 5 0 0 1 2.79-4.49l.19-.09h.17a4.5 4.5 0 0 1 .72-.22h.61a4 4 0 0 1 .5 0 5 5 0 0 1 5 5v.15a1 1 0 0 0 .9 1.1 7.12 7.12 0 0 1 5.53 10.49 1 1 0 1 0 1.75 1Z" fill="#002849"/><path d="M56 42.9a1 1 0 0 0-.46-1.9 7 7 0 0 1-1.68.2H21.59a9.52 9.52 0 0 1-9.51-9.51 9.3 9.3 0 0 1 .68-3.53 9.43 9.43 0 0 1 8.17-5.93v1.71a1 1 0 0 0 1 .92H22a1 1 0 0 0 .91-1.08v-.83a12 12 0 0 1 .09-1.67c0-.21.07-.42.11-.64s.09-.38.13-.55.09-.35.16-.54.08-.26.13-.41.15-.4.24-.61.15-.33.23-.5a10 10 0 0 1 .85-1.46 4 4 0 0 1 .26-.37c.1-.14.2-.27.35-.44s.21-.25.34-.39l.38-.4c.09-.09.17-.17.32-.31l.22-.2.39-.33.26-.2.09-.07c.1-.08.2-.15.31-.22l.08-.06.1-.06.09-.06.19-.12a10 10 0 0 1 1-.52l.48-.22a12 12 0 0 1 1.38-.48l.42-.1.36-.08.5-.08H33a11.4 11.4 0 0 1 4.43.47 1 1 0 1 0 .6-1.91 13.1 13.1 0 0 0-4-.61c-.42 0-.83 0-1.29.06h-.71l-.63.1-.38.09-.5.12a14 14 0 0 0-1.61.56l-.6.27-.43.22a13.7 13.7 0 0 0-3.43-5.71 13.82 13.82 0 0 0-8.5-4 1 1 0 0 0-1 .62 1 1 0 0 0 .3 1.15c.24.19.46.4.68.61a8.88 8.88 0 0 1-5.56 15.13 1 1 0 1 0 .16 2 10.87 10.87 0 0 0 8.21-16.86 11.83 11.83 0 0 1 7.44 8.18l-.33.25-.41.34-.29.26c-.13.11-.26.24-.4.38l-.42.45c-.16.17-.3.33-.4.46s-.28.34-.41.51a6 6 0 0 0-.34.49 11.7 11.7 0 0 0-1 1.69c-.09.2-.19.39-.26.58s-.21.49-.28.72-.12.34-.16.47-.12.4-.18.61-.09.38-.14.56a12 12 0 0 0-1.5.15h-.12a12 12 0 0 0-1.37.33H18a11 11 0 0 0-1.27.5l-.18.08a11 11 0 0 0-1.18.65l-.17.11a11 11 0 0 0-1.09.81L14 23a11 11 0 0 0-1 1 11 11 0 0 0-.89 1.15 11.5 11.5 0 0 0-.77 1.33 11.8 11.8 0 0 1-7.6-7.28 11 11 0 0 0 1.92 1 1 1 0 0 0 .75-1.85 8.8 8.8 0 0 1-2.99-1.85 8 8 0 0 1-.6-.67 1 1 0 0 0-1.79.7 13.78 13.78 0 0 0 9.51 11.88 11.4 11.4 0 0 0-.46 3.23 11.52 11.52 0 0 0 11.51 11.51h32.28A9.2 9.2 0 0 0 56 42.9" fill="#002849"/><path d="M22.57 27a1 1 0 0 0-.5 1.32q.23.5.49 1a1 1 0 1 0 1.75-1q-.23-.4-.42-.83a1 1 0 0 0-1.32-.49m1.83 22.76a1 1 0 0 0-1-1h-.78l.55-.55a1 1 0 0 0-1.41-1.41l-.55.55v-.78a1 1 0 0 0-2 0v.78l-.55-.55a1 1 0 0 0-1.41 1.41l.55.55H17a1 1 0 1 0 0 2h.78l-.55.55a1 1 0 1 0 1.41 1.41l.55-.55V53a1 1 0 0 0 2 0v-.78l.55.55a1 1 0 0 0 1.41-1.41l-.55-.55h.78a1 1 0 0 0 1.02-1.05m18.19 0a1 1 0 0 0-1-1h-.78l.55-.55a1 1 0 0 0-1.41-1.41l-.55.55v-.78a1 1 0 0 0-2 0v.78l-.55-.55a1 1 0 0 0-1.41 1.41l.55.55h-.78a1 1 0 0 0 0 2H36l-.55.55a1 1 0 1 0 1.41 1.41l.55-.55V53a1 1 0 0 0 2 0v-.78l.55.55a1 1 0 0 0 1.41-1.41l-.55-.55h.78a1 1 0 0 0 .99-1.05m18.18 0a1 1 0 0 0-1-1H59l.55-.55a1 1 0 0 0-1.41-1.41l-.55.55v-.78a1 1 0 0 0-2 0v.78L55 46.8a1 1 0 0 0-1.41 1.41l.55.55h-.78a1 1 0 0 0 0 2h.78l-.55.55A1 1 0 1 0 55 52.73l.55-.55V53a1 1 0 0 0 2 0v-.78l.55.55a1 1 0 0 0 1.41-1.41l-.51-.6h.78a1 1 0 0 0 .99-1M33.5 58.27a1 1 0 0 0-1-1h-.78l.55-.55a1 1 0 0 0-1.41-1.41l-.55.55v-.78a1 1 0 0 0-2 0v.78l-.55-.55a1 1 0 0 0-1.41 1.41l.55.55h-.78a1 1 0 0 0 0 2h.78l-.55.55a1 1 0 1 0 1.41 1.41l.55-.55v.78a1 1 0 0 0 2 0v-.78l.55.55a1 1 0 0 0 1.41-1.41l-.55-.55h.78a1 1 0 0 0 1-1m18.18 0a1 1 0 0 0-1-1h-.78l.55-.55A1 1 0 0 0 49 55.31l-.55.55v-.78a1 1 0 0 0-2 0v.78l-.55-.55a1 1 0 0 0-1.41 1.41l.55.55h-.74a1 1 0 0 0 0 2h.78l-.55.55a1 1 0 1 0 1.41 1.41l.55-.55v.78a1 1 0 0 0 2 0v-.78l.55.55a1 1 0 0 0 1.41-1.41l-.55-.55h.78a1 1 0 0 0 1-1" fill="#002849"/></svg>