<svg data-name="Layer 1" viewBox="0 0 64 64" xmlns="http://www.w3.org/2000/svg"><path d="M21.59 44.16h32.27A8.11 8.11 0 0 0 54.68 28a3 3 0 0 0 0-.25 6 6 0 0 0-6-6 5 5 0 0 0-.62 0 4 4 0 0 0-.44.06h-.08l-.25.06a5 5 0 0 0-.8.25.7.7 0 0 0-.19.08 2 2 0 0 0-.31.14 12.16 12.16 0 0 0-11.88-9.6c-.39 0-.77 0-1.15.05l-.38.05h-.31l-.53.08-.44.08-.45.11a13 13 0 0 0-1.5.53l-.54.25a11 11 0 0 0-1 .56l-.24.15-.23.14c-.17.1-.32.22-.48.34l-.31.24-.41.34-.27.25c-.12.1-.23.21-.34.32l-.4.42c-.14.14-.26.29-.38.44s-.25.3-.36.46a5 5 0 0 0-.31.45 11 11 0 0 0-.9 1.55c-.08.18-.17.36-.25.54s-.19.44-.26.67-.1.3-.14.44-.11.37-.16.56-.1.41-.14.61-.09.47-.13.7h-.44a10.5 10.5 0 0 0-9.76 6.61 10.3 10.3 0 0 0-.76 3.9 10.51 10.51 0 0 0 10.45 10.58" fill="#6e9eff"/><path d="M11.83 29.75a10.5 10.5 0 0 1 9.76-6.61H22c0-.24.08-.48.13-.7s.09-.42.14-.61.1-.37.16-.56.09-.3.14-.44.17-.45.26-.67.16-.36.25-.54a11 11 0 0 1 .9-1.55 5 5 0 0 1 .31-.45c.12-.16.24-.31.36-.46s.25-.3.38-.44l.4-.42c.11-.11.22-.22.34-.32l.27-.25.41-.34.31-.24c.16-.12.31-.24.48-.34A12.79 12.79 0 0 0 15.92 4.55c.26.21.51.44.75.68a9.89 9.89 0 0 1-14 14 9 9 0 0 1-.67-.78 12.79 12.79 0 0 0 9.81 11.3Z" fill="#fedb41"/><path d="M46 45.16a1 1 0 0 0 0-2h-1.7a1 1 0 0 0 0 2Zm4.5 0h3.37a9.11 9.11 0 0 0 1.8-18 7 7 0 0 0-7-6.42 6 6 0 0 0-.68 0 5 5 0 0 0-.56.07h-.1l-.26.06-.41.1a13 13 0 0 0-1.59-3.35 1 1 0 1 0-1.67 1.1 11 11 0 0 1 1.41 3.11 7 7 0 0 0-3.18 5.86 7.1 7.1 0 0 0 1 3.6 1 1 0 0 0 1.72-1 5 5 0 0 1-.71-2.59 5 5 0 0 1 2.79-4.49l.19-.09h.17a4.4 4.4 0 0 1 .71-.22h.6a4 4 0 0 1 .5 0 5 5 0 0 1 5 5s0 .1 0 .14a1 1 0 0 0 .98.96 7.11 7.11 0 0 1-.71 14.19H50.5a1 1 0 0 0 0 2ZM22.57 29a1 1 0 0 0-.5 1.32q.23.5.49 1a1 1 0 1 0 1.75-1c-.15-.27-.29-.55-.42-.83a1 1 0 0 0-1.32-.49" fill="#002849"/><path d="M5 27a13.8 13.8 0 0 0 5.53 3.38 11.4 11.4 0 0 0-.46 3.23 11.52 11.52 0 0 0 11.52 11.55h5.95a1 1 0 0 0 0-2h-5.95a9.52 9.52 0 0 1-9.51-9.51 9.3 9.3 0 0 1 .68-3.53 9.42 9.42 0 0 1 8.17-5.93v1.71a1 1 0 0 0 1 .92H22a1 1 0 0 0 .91-1.08v-.83a12 12 0 0 1 .09-1.62c0-.21.07-.42.11-.64s.09-.38.13-.56.09-.34.15-.53.08-.26.13-.41.15-.39.24-.61.15-.33.23-.5a10.3 10.3 0 0 1 .85-1.46c.08-.12.17-.25.27-.38s.2-.27.35-.44.21-.25.34-.39l.35-.38c.09-.09.18-.19.34-.32l.22-.2.39-.33.26-.2.09-.07a4 4 0 0 1 .31-.22h.06l.07-.05.09-.06h.07l.21-.13a10 10 0 0 1 .94-.51l.5-.23a12 12 0 0 1 1.38-.48l.42-.1.36-.08.5-.08h1.71a11.07 11.07 0 0 1 6.5 2.09 1 1 0 0 0 1.17-1.62 13.06 13.06 0 0 0-7.67-2.47c-.42 0-.83 0-1.29.06h-.71l-.63.11-.38.09-.5.12a14 14 0 0 0-1.61.56l-.59.27-.43.23a13.7 13.7 0 0 0-3.43-5.72 13.83 13.83 0 0 0-8.51-4 1 1 0 0 0-.72 1.77c.24.19.46.4.67.61a8.88 8.88 0 0 1-2.8 14.46 1 1 0 1 0 .78 1.84 10.88 10.88 0 0 0 4.79-16 11.83 11.83 0 0 1 7.44 8.18l-.33.25-.41.34-.29.26c-.14.12-.27.25-.4.38l-.42.45c-.16.17-.31.34-.4.47s-.28.34-.41.51a6 6 0 0 0-.34.49 12 12 0 0 0-1 1.69c-.09.2-.19.39-.27.6s-.2.48-.28.71-.11.33-.15.47-.12.4-.18.61-.1.38-.14.57a12 12 0 0 0-1.5.15h-.12a12 12 0 0 0-1.37.33L18 22.7a11 11 0 0 0-1.27.49l-.18.08a11 11 0 0 0-1.17.65l-.17.11a11 11 0 0 0-1.08.81L14 25a11 11 0 0 0-1 1 11 11 0 0 0-.89 1.14 12 12 0 0 0-.76 1.31 11.8 11.8 0 0 1-7.6-7.27 10.84 10.84 0 0 0 5.78 1.92 1 1 0 1 0 0-2 8.84 8.84 0 0 1-6.14-2.58 8 8 0 0 1-.6-.67 1 1 0 0 0-1.79.7A13.77 13.77 0 0 0 5 27m19 21.32L22.44 54a1 1 0 1 0 1.93.52l1.53-5.7a1 1 0 1 0-1.9-.5" fill="#002849"/><path d="M35 55.24a1 1 0 0 0 1.22-.71l3.52-13.15a1 1 0 0 0-1-1.26h-6.52l3.19-11.89a1 1 0 0 0-1.93-.52L30 40.87a1 1 0 0 1 0 .26v.07a1.5 1.5 0 0 0 .1.37 1.6 1.6 0 0 0 .23.3l.15.1a1 1 0 0 0 .18.09h.06a1 1 0 0 0 .26 0h6.54L34.27 54a1 1 0 0 0 .73 1.24m11.81 0a1 1 0 0 0 1.19-.71l1.53-5.7a1 1 0 1 0-1.93-.52L46.1 54a1 1 0 0 0 .71 1.24M29.22 55a1 1 0 0 0-1.22.71l-.66 2.46a1 1 0 1 0 1.93.52l.66-2.46a1 1 0 0 0-.71-1.23m1.37-1.23 1.32-4.94a1 1 0 0 0-1.91-.51l-1.32 4.94a1 1 0 1 0 1.93.52Zm9.02 6.65a1 1 0 0 0 1.22-.71l2.91-10.87a1 1 0 0 0-1.93-.52L38.9 59.19a1 1 0 0 0 .71 1.23" fill="#002849"/></svg>