<svg data-name="Layer 1" viewBox="0 0 64 64" xmlns="http://www.w3.org/2000/svg"><path d="M53.4 23.72a3 3 0 0 0 0-.31 7.11 7.11 0 0 0-7.94-7.06 7 7 0 0 0-.75.13h-.11c-.23.06-.45.12-.66.2h-.08a7 7 0 0 0-.69.3 14.35 14.35 0 0 0-14-11.32c-.49 0-1 0-1.44.08h-.21c-.39 0-.78.1-1.16.18l-.39.09c-.31.07-.63.15-.93.24l-.45.15c-.27.09-.55.19-.81.3l-.53.3-.73.35-.52.27-.63.38-.47.31-.61.46-.44.36c-.19.16-.38.34-.56.51l-.41.39c-.18.19-.36.39-.53.58s-.24.26-.35.4-.38.5-.57.76l-.22.3q-.37.54-.68 1.12c-.07.12-.12.25-.18.37-.14.27-.28.55-.4.83s-.12.3-.18.46-.21.54-.3.81-.09.32-.14.48-.16.56-.22.85-.06.32-.09.48-.08.35-.1.53h-.53a12.39 12.39 0 0 0 0 24.78h38.05a9.56 9.56 0 0 0 1-19.08Z" fill="#6e9eff"/><path d="M60 40.64a1 1 0 0 0-1.42-1.4 8.5 8.5 0 0 1-6.1 2.55H38.67a1 1 0 0 0 0 2h13.77A10.5 10.5 0 0 0 60 40.64M18.17 10.76a1 1 0 0 0 1.41 0 13.24 13.24 0 0 1 9.53-4A13.4 13.4 0 0 1 42 16.56a8.1 8.1 0 0 0-2.64 11 1 1 0 0 0 1.72-1 6.1 6.1 0 0 1 2.53-8.59 6 6 0 0 1 .6-.26h.08a6 6 0 0 1 .59-.17h.07a6.1 6.1 0 0 1 7.49 5.95 2 2 0 0 1 0 .18 1 1 0 0 0 .89 1.12 8.57 8.57 0 0 1 7.14 11.57 1 1 0 1 0 1.87.71 10.57 10.57 0 0 0-7.92-14.14 8.12 8.12 0 0 0-8.06-7.54 8 8 0 0 0-1.19.1h-.14a8 8 0 0 0-1.16.27 15.42 15.42 0 0 0-14.7-11 15.23 15.23 0 0 0-11 4.61 1 1 0 0 0 0 1.39m-3.78 33.03h8.86a1 1 0 1 0 0-2h-8.86A11.38 11.38 0 0 1 13.83 19c0 .35-.06.7-.06 1v1.15a1 1 0 0 0 1 .93h.08a1 1 0 0 0 .92-1.07v-1a13.5 13.5 0 0 1 .31-2.85 13.3 13.3 0 0 1 .78-2.42A1 1 0 1 0 15 14a15.3 15.3 0 0 0-.87 2.74s0 .06 0 .09v.13a13.39 13.39 0 0 0 .31 26.78Z" fill="#002849"/><path d="M15.62 25.07a1 1 0 0 0-.5 1.32q.26.58.57 1.14a1 1 0 1 0 1.75-1q-.27-.48-.5-1a1 1 0 0 0-1.32-.46m3.78 29.02a1 1 0 0 0 1-.74l1.53-5.7a1 1 0 0 0-1.93-.52l-1.53 5.7a1 1 0 0 0 1 1.26Zm11.6-.04a1 1 0 0 0 1.22-.71l3.51-13.14a1 1 0 0 0-1-1.26h-6.51l3.19-11.89a1 1 0 0 0-1.93-.52L26 39.68a1 1 0 0 1 0 .26v.07a1.5 1.5 0 0 0 .1.37 1.6 1.6 0 0 0 .23.3l.15.1a1 1 0 0 0 .18.09h.06a1 1 0 0 0 .26 0h6.54l-3.25 11.96a1 1 0 0 0 .73 1.22m12.63-6.92-1.53 5.7a1 1 0 1 0 1.93.52l1.53-5.7a1 1 0 0 0-1.93-.52M23.89 55l-.55 2a1 1 0 1 0 1.93.52l.55-2.05a1 1 0 1 0-1.93-.47m1.48-1.71a1 1 0 0 0 1.22-.71l1.32-4.94a1 1 0 0 0-1.91-.51l-1.32 4.94a1 1 0 0 0 .69 1.22m13.98-4.15.4-1.49a1 1 0 1 0-1.93-.52l-.4 1.49a1 1 0 1 0 1.93.52m-3.74 10.09a1 1 0 0 0 1.22-.71l1.85-6.9a1 1 0 1 0-1.93-.52L34.9 58a1 1 0 0 0 .71 1.23" fill="#002849"/></svg>