<svg data-name="Layer 1" viewBox="0 0 64 64" xmlns="http://www.w3.org/2000/svg"><path d="M31.81 11a21.08 21.08 0 0 0-21.09 21 21.08 21.08 0 1 0 21.09-21" fill="#fedb41"/><path d="M7.07 31H2.24a1 1 0 0 0 0 2h4.83a1 1 0 0 0 0-2m35.46 18a20.09 20.09 0 0 1-30.25-21.66 1 1 0 0 0-1.95-.47A22.09 22.09 0 0 0 43.6 50.72 1 1 0 1 0 42.53 49M31.81 10a22.11 22.11 0 0 0-19.34 11.37 1 1 0 0 0 1.75 1 20.09 20.09 0 1 1 32 23.73 1 1 0 1 0 1.43 1.4A22.08 22.08 0 0 0 31.81 10m-1-8v4.88a1 1 0 1 0 2 0V2a1 1 0 1 0-2 0m1 54.13a1 1 0 0 0-1 1V62a1 1 0 1 0 2 0v-4.87a1 1 0 0 0-1-1M61.76 31h-4.83a1 1 0 0 0 0 2h4.83a1 1 0 0 0 0-2M50.28 49.06a1 1 0 0 0-1.41 1.41l3.42 3.42a1 1 0 0 0 1.41-1.41ZM9.92 10.11a1 1 0 0 0 0 1.41l3.42 3.42a1 1 0 0 0 1.41-1.41l-3.42-3.42a1 1 0 0 0-1.41 0" fill="#002849"/><path d="m13.33 49.06-3.41 3.42a1 1 0 1 0 1.41 1.41l3.42-3.42a1 1 0 0 0-1.41-1.41Zm38.95-38.95-3.42 3.42a1 1 0 1 0 1.41 1.41l3.42-3.42a1 1 0 0 0-1.41-1.41" fill="#002849"/></svg>